<mxfile host="app.diagrams.net" modified="2024-04-13T21:40:02.909Z" agent="Mozilla/5.0 (X11; Linux x86_64) AppleWebKit/537.36 (KHTML, like Gecko) Chrome/123.0.0.0 Safari/537.36" etag="KjgSBbN5EM8_R4IaEH8M" version="24.2.5" type="google">
  <diagram name="Page-1" id="5OWkqORfowP5ucrxuJD-">
    <mxGraphModel grid="1" page="1" gridSize="10" guides="1" tooltips="1" connect="1" arrows="1" fold="1" pageScale="1" pageWidth="827" pageHeight="1169" math="0" shadow="0">
      <root>
        <mxCell id="0" />
        <mxCell id="1" parent="0" />
        <mxCell id="T60zcWtWfTrn2Mu5QFH--1" value="IDLE STATE" style="ellipse;whiteSpace=wrap;html=1;fillColor=#FF9933;" vertex="1" parent="1">
          <mxGeometry x="354" y="30" width="120" height="80" as="geometry" />
        </mxCell>
        <mxCell id="T60zcWtWfTrn2Mu5QFH--2" value="Device configuration state&amp;nbsp;" style="ellipse;whiteSpace=wrap;html=1;fillColor=#FF9933;" vertex="1" parent="1">
          <mxGeometry x="354" y="200" width="120" height="80" as="geometry" />
        </mxCell>
        <mxCell id="T60zcWtWfTrn2Mu5QFH--3" value="Device testing&lt;div&gt;&amp;nbsp;state&lt;/div&gt;" style="ellipse;whiteSpace=wrap;html=1;fillColor=#FF9933;" vertex="1" parent="1">
          <mxGeometry x="354" y="360" width="120" height="80" as="geometry" />
        </mxCell>
        <mxCell id="yIdrd5SitfhTnWukg6rs-14" style="edgeStyle=orthogonalEdgeStyle;rounded=0;orthogonalLoop=1;jettySize=auto;html=1;exitX=0;exitY=0.5;exitDx=0;exitDy=0;entryX=0;entryY=0.5;entryDx=0;entryDy=0;curved=1;" edge="1" parent="1" source="T60zcWtWfTrn2Mu5QFH--4" target="T60zcWtWfTrn2Mu5QFH--1">
          <mxGeometry relative="1" as="geometry">
            <Array as="points">
              <mxPoint x="50" y="480" />
              <mxPoint x="50" y="70" />
            </Array>
          </mxGeometry>
        </mxCell>
        <mxCell id="T60zcWtWfTrn2Mu5QFH--4" value="Passed&amp;nbsp;&lt;div&gt;state&amp;nbsp;&lt;/div&gt;" style="ellipse;whiteSpace=wrap;html=1;fillColor=#FF9933;" vertex="1" parent="1">
          <mxGeometry x="90" y="440" width="130" height="80" as="geometry" />
        </mxCell>
        <mxCell id="T60zcWtWfTrn2Mu5QFH--7" value="" style="endArrow=classic;html=1;rounded=0;entryX=0.5;entryY=0;entryDx=0;entryDy=0;exitX=0.5;exitY=1;exitDx=0;exitDy=0;" edge="1" parent="1" source="T60zcWtWfTrn2Mu5QFH--1" target="T60zcWtWfTrn2Mu5QFH--2">
          <mxGeometry relative="1" as="geometry">
            <mxPoint x="420" y="130" as="sourcePoint" />
            <mxPoint x="580" y="130" as="targetPoint" />
          </mxGeometry>
        </mxCell>
        <mxCell id="T60zcWtWfTrn2Mu5QFH--8" value="Entering Data Configuration Device" style="edgeLabel;resizable=0;html=1;;align=center;verticalAlign=middle;shadow=0;strokeColor=#0000CC;" connectable="0" vertex="1" parent="T60zcWtWfTrn2Mu5QFH--7">
          <mxGeometry relative="1" as="geometry" />
        </mxCell>
        <mxCell id="T60zcWtWfTrn2Mu5QFH--10" value="" style="endArrow=classic;html=1;rounded=0;exitX=0.5;exitY=1;exitDx=0;exitDy=0;entryX=0.5;entryY=0;entryDx=0;entryDy=0;" edge="1" parent="1" source="T60zcWtWfTrn2Mu5QFH--2" target="T60zcWtWfTrn2Mu5QFH--3">
          <mxGeometry relative="1" as="geometry">
            <mxPoint x="420" y="300" as="sourcePoint" />
            <mxPoint x="413" y="330" as="targetPoint" />
          </mxGeometry>
        </mxCell>
        <mxCell id="T60zcWtWfTrn2Mu5QFH--11" value="Successful Configuration" style="edgeLabel;resizable=0;html=1;;align=center;verticalAlign=middle;" connectable="0" vertex="1" parent="T60zcWtWfTrn2Mu5QFH--10">
          <mxGeometry relative="1" as="geometry" />
        </mxCell>
        <mxCell id="yIdrd5SitfhTnWukg6rs-1" value="Error handler" style="ellipse;whiteSpace=wrap;html=1;fillColor=#FF9933;" vertex="1" parent="1">
          <mxGeometry x="510" y="530" width="120" height="80" as="geometry" />
        </mxCell>
        <mxCell id="yIdrd5SitfhTnWukg6rs-2" value="" style="endArrow=classic;html=1;rounded=0;exitX=0;exitY=0.5;exitDx=0;exitDy=0;entryX=0.5;entryY=0;entryDx=0;entryDy=0;" edge="1" parent="1" source="T60zcWtWfTrn2Mu5QFH--3" target="T60zcWtWfTrn2Mu5QFH--4">
          <mxGeometry relative="1" as="geometry">
            <mxPoint x="330" y="400" as="sourcePoint" />
            <mxPoint x="330" y="480" as="targetPoint" />
          </mxGeometry>
        </mxCell>
        <mxCell id="yIdrd5SitfhTnWukg6rs-3" value="No Errors Detected" style="edgeLabel;resizable=0;html=1;;align=center;verticalAlign=middle;" connectable="0" vertex="1" parent="yIdrd5SitfhTnWukg6rs-2">
          <mxGeometry relative="1" as="geometry" />
        </mxCell>
        <mxCell id="yIdrd5SitfhTnWukg6rs-4" value="" style="endArrow=classic;html=1;rounded=0;exitX=1;exitY=0.5;exitDx=0;exitDy=0;entryX=0.5;entryY=0;entryDx=0;entryDy=0;" edge="1" parent="1" source="T60zcWtWfTrn2Mu5QFH--3" target="yIdrd5SitfhTnWukg6rs-1">
          <mxGeometry relative="1" as="geometry">
            <mxPoint x="550" y="390" as="sourcePoint" />
            <mxPoint x="550" y="470" as="targetPoint" />
          </mxGeometry>
        </mxCell>
        <mxCell id="yIdrd5SitfhTnWukg6rs-5" value="Finding errors" style="edgeLabel;resizable=0;html=1;;align=center;verticalAlign=middle;" connectable="0" vertex="1" parent="yIdrd5SitfhTnWukg6rs-4">
          <mxGeometry relative="1" as="geometry" />
        </mxCell>
        <mxCell id="yIdrd5SitfhTnWukg6rs-16" value="Restart&amp;nbsp;" style="edgeLabel;resizable=0;html=1;;align=center;verticalAlign=middle;" connectable="0" vertex="1" parent="1">
          <mxGeometry x="50" y="260" as="geometry" />
        </mxCell>
        <mxCell id="Nt3nnE9oyjvroAX6vslq-3" value="" style="endArrow=classic;html=1;rounded=0;entryX=1;entryY=0.5;entryDx=0;entryDy=0;exitX=1;exitY=0.5;exitDx=0;exitDy=0;edgeStyle=orthogonalEdgeStyle;curved=1;" edge="1" parent="1" source="yIdrd5SitfhTnWukg6rs-1" target="T60zcWtWfTrn2Mu5QFH--1">
          <mxGeometry width="50" height="50" relative="1" as="geometry">
            <mxPoint x="700" y="550" as="sourcePoint" />
            <mxPoint x="750" y="500" as="targetPoint" />
            <Array as="points">
              <mxPoint x="810" y="570" />
              <mxPoint x="810" y="70" />
            </Array>
          </mxGeometry>
        </mxCell>
        <mxCell id="Nt3nnE9oyjvroAX6vslq-4" value="" style="endArrow=classic;html=1;rounded=0;exitX=1;exitY=0.5;exitDx=0;exitDy=0;entryX=1;entryY=0;entryDx=0;entryDy=0;edgeStyle=orthogonalEdgeStyle;curved=1;" edge="1" parent="1" source="T60zcWtWfTrn2Mu5QFH--2" target="yIdrd5SitfhTnWukg6rs-1">
          <mxGeometry width="50" height="50" relative="1" as="geometry">
            <mxPoint x="500" y="280" as="sourcePoint" />
            <mxPoint x="700" y="400" as="targetPoint" />
          </mxGeometry>
        </mxCell>
        <mxCell id="Nt3nnE9oyjvroAX6vslq-5" value="Data Not Supportable/&lt;div&gt;configuration error&lt;/div&gt;" style="edgeLabel;resizable=0;html=1;;align=center;verticalAlign=middle;" connectable="0" vertex="1" parent="1">
          <mxGeometry x="600" y="350" as="geometry">
            <mxPoint x="7" y="-6" as="offset" />
          </mxGeometry>
        </mxCell>
      </root>
    </mxGraphModel>
  </diagram>
</mxfile>
